<svg xmlns="http://www.w3.org/2000/svg" width="800" height="800" viewBox="0 0 32 32"><path fill-rule="evenodd" d="M16 32a16 16 0 1 1 0-32 16 16 0 0 1 0 32zm7.2-18c.3-2-1.3-3.2-3.5-4l.7-2.8-1.7-.4-.7 2.7-1.4-.3.7-2.8-1.7-.4-.7 2.8-1.1-.2-2.4-.6-.5 1.8 1.3.3c.7.2.8.7.8 1l-.8 3.3h.2-.2L11 18.9c-.1.2-.3.5-.8.4L9 19l-.8 2 2.2.6 1.2.3-.7 2.8 1.7.5.8-2.9 1.3.4-.7 2.8 1.8.4.7-2.8c3 .5 5.1.3 6-2.3.8-2.2 0-3.4-1.5-4.2 1.1-.3 2-1 2.2-2.6zm-4 5.6c-.5 2.1-4.1 1-5.3.7l1-3.9c1.1.3 4.9 1 4.3 3.2zm.6-5.6c-.5 2-3.5 1-4.5.7l.9-3.4c1 .2 4 .7 3.6 2.7z"/></svg>