<svg xmlns="http://www.w3.org/2000/svg" width="800" height="800" viewBox="0 0 32 32"><path d="M16 0a16 16 0 1 1 0 32 16 16 0 0 1 0-32zm3.4 5.6c-.3-.2-.5 0-.6.2V7a.9.9 0 0 0 .3.5 9 9 0 0 1 5.4 11.7 9 9 0 0 1-5.4 5.4c-.2 0-.4.3-.4.6v.9a.5.5 0 0 0 .4.4h.3a10.9 10.9 0 0 0 7-13.8 11 11 0 0 0-7-7.1zm-6.5-.1h-.3a10.9 10.9 0 0 0-7 13.8 11 11 0 0 0 7 7c.3.2.5 0 .6-.2V25c0-.2-.2-.4-.3-.5a9 9 0 0 1-5.4-11.7 9 9 0 0 1 5.4-5.4c.2 0 .4-.3.4-.6V6a.5.5 0 0 0-.4-.4zm3.5 3.2h-.9c-.3 0-.4.2-.5.4v1.4h-.2c-1.7.4-2.8 1.6-2.8 3 0 2 1.3 2.8 3.8 3.1 1.7.3 2.3.7 2.3 1.6 0 1-.9 1.7-2 1.7-1.6 0-2.2-.7-2.4-1.6 0-.2-.2-.4-.4-.4h-1.1a.4.4 0 0 0-.3.5v.2c.3 1.4 1.3 2.4 3.2 2.7v1.5c0 .3.2.4.5.5h.9c.3 0 .4-.2.5-.5v-1.5h.2c1.7-.4 2.8-1.6 2.8-3.2 0-2.1-1.3-2.8-3.8-3.1-1.8-.3-2.2-.8-2.2-1.6 0-.9.6-1.4 1.8-1.4 1.1 0 1.7.4 2 1.3a.5.5 0 0 0 .5.3h1a.4.4 0 0 0 .4-.5v-.2a3 3 0 0 0-2.8-2.3V9.1c0-.2-.2-.4-.5-.4z"/></svg>